<?xml version="1.0" encoding="UTF-8"?>
<svg id="Layer_2" data-name="Layer 2" xmlns="http://www.w3.org/2000/svg" viewBox="0 0 1857.5 1593.5">
  <defs>
    <style>
      .cls-1 {
        fill: none;
      }

      .cls-1, .cls-2 {
        stroke-width: 0px;
      }

      .cls-2 {
        fill: #007900;
      }
    </style>
  </defs>
  <g id="Layer_2-2" data-name="Layer 2">
    <path class="cls-2" d="m1426.29,303.49c-49.78-49.97-123.19-61.62-184.02-35.1h.07c-18.63,8.09-36.08,19.81-51.3,35.1-10.15,10.18-18.7,21.35-25.65,33.14-37.75,64.06-29.2,147.93,25.65,202.99,49.77,49.96,123.19,61.61,184.01,35.1,2.51-1.05,4.94-2.17,7.3-3.35,1.26-.63,2.51-1.26,3.69-1.89,2.36-1.25,4.73-2.58,7.09-3.97,11.82-6.98,22.94-15.64,33.09-25.82,3.06-3.07,5.98-6.21,8.76-9.49,56.1-65.59,53.18-164.61-8.69-226.71Zm317.01-12.56v-.07l-266.47,267.46c-4.66,5.79-9.66,11.37-15.02,16.75-3.96,3.97-7.99,7.74-12.23,11.37l-140.85,141.37-133.4-133.9-167.54,168.16-.56.63,301.5,302.63,320.69-321.89c122.01-122.46,159.97-297.4,113.88-452.51Zm-108.94-186.24c-1.67-1.68-3.27-3.35-4.94-5.03-1.66-1.67-3.33-3.35-5-4.95-42.88-41.76-91.94-73.33-144.17-94.71h-342.93c-52.24,21.38-101.31,52.95-144.2,94.71-1.67,1.67-3.34,3.28-5.01,4.95-1.67,1.68-3.26,3.35-4.93,5.03-165.88,171.58-170.46,441.97-13.63,618.93l168.31-168.93v-.07c-15.85-20.38-27.6-42.98-35.11-66.64-13.77-43.12-13.77-89.73,0-132.86,10.15-31.89,27.81-61.89,53.04-87.22,25.24-25.33,55.13-43.06,86.9-53.24,42.89-13.75,89.19-13.75,132.09,0,31.84,10.18,61.73,27.98,87.03,53.31,25.31,25.33,42.97,55.4,53.12,87.36,8.06,25.26,11.33,51.71,9.94,77.94l33.85-33.98,163.79-164.4c-21.06-47.03-50.4-91.2-88.15-130.2Z"/>
    <path class="cls-2" d="m666.96,1114.24c-49.77-49.96-123.18-61.62-184.01-35.1-2.51,1.05-4.94,2.16-7.3,3.35-1.25.63-2.5,1.26-3.69,1.88-2.36,1.26-4.72,2.59-7.09,3.98-11.82,6.98-22.94,15.63-33.09,25.82-3.06,3.07-5.98,6.21-8.76,9.49-56.1,65.59-53.18,164.61,8.69,226.71,49.78,49.96,123.19,61.62,184.02,35.1h-.07c18.63-8.09,36.08-19.82,51.3-35.1,10.15-10.19,18.7-21.35,25.66-33.14,37.75-64.06,29.19-147.93-25.66-202.99Zm-117.69-525.71l-320.69,321.89c-122.01,122.46-159.96,297.39-113.87,452.51v.07l266.46-267.46c4.66-5.79,9.67-11.38,15.02-16.75,3.96-3.98,7.99-7.74,12.23-11.37l140.85-141.37,133.41,133.9,167.54-168.17.55-.62-301.5-302.63Zm339.18,341.7l-168.3,168.94v.07c15.85,20.37,27.59,42.98,35.1,66.64,13.77,43.12,13.77,89.73,0,132.85-10.15,31.89-27.8,61.9-53.04,87.23-25.24,25.33-55.13,43.05-86.9,53.24-42.89,13.75-89.19,13.75-132.08,0-31.84-10.19-61.74-27.98-87.04-53.31-25.31-25.33-42.96-55.41-53.11-87.36-8.07-25.26-11.34-51.71-9.95-77.95l-33.85,33.98-163.79,164.4c21.07,47.03,50.4,91.2,88.15,130.21,1.67,1.68,3.27,3.35,4.94,5.03,1.67,1.67,3.34,3.34,5,4.95,12.67,12.34,25.88,23.79,39.56,34.35h552.17c13.68-10.56,26.89-22.01,39.57-34.35,1.67-1.67,3.34-3.28,5.01-4.95,1.67-1.68,3.27-3.35,4.94-5.03,165.87-171.58,170.46-441.98,13.62-618.94Z"/>
    <path class="cls-2" d="m1137.32,1593.5h342.93c-109.65-44.89-233.26-44.89-342.93,0Z"/>
    <path class="cls-2" d="m273.14,0c162.31,125.37,389.81,125.37,552.17,0H273.14Z"/>
    <rect class="cls-1" width="1857.5" height="1593.5"/>
  </g>
</svg>