<?xml version="1.0" encoding="UTF-8"?>
<svg id="Layer_2" data-name="Layer 2" xmlns="http://www.w3.org/2000/svg" xmlns:xlink="http://www.w3.org/1999/xlink" viewBox="0 0 907 1099">
  <defs>
    <style>
      .cls-1 {
        fill: #d9d9d9;
      }

      .cls-1, .cls-2 {
        stroke-width: 0px;
      }

      .cls-3 {
        mask: url(#mask);
      }

      .cls-2 {
        fill: rgba(255, 255, 255, .15);
      }
    </style>
    <mask id="mask" x="-16" y="0" width="923" height="1099" maskUnits="userSpaceOnUse">
      <g id="mask0_858_1726" data-name="mask0 858 1726">
        <rect class="cls-1" x="-16" y="168" width="906" height="731"/>
      </g>
    </mask>
  </defs>
  <g id="Layer_1-2" data-name="Layer 1">
    <g class="cls-3">
      <path class="cls-2" d="m282.6,588.36l-168.31,168.94C-42.54,580.33-37.95,309.94,127.92,138.35c1.67-1.67,3.27-3.35,4.94-5.02,1.67-1.67,3.34-3.28,5.01-4.95,175.81-171.17,455.56-171.17,631.3,0,1.67,1.6,3.34,3.28,5.01,4.95,1.67,1.67,3.27,3.35,4.94,5.02,37.75,39.01,67.09,83.18,88.15,130.21l-163.79,164.4-33.86,33.98c1.39-26.24-1.88-52.68-9.94-77.94-10.15-31.96-27.81-62.03-53.11-87.36-25.3-25.33-55.2-43.12-87.04-53.31-42.89-13.75-89.19-13.75-132.09,0-31.77,10.19-61.66,27.91-86.9,53.24-25.24,25.33-42.89,55.33-53.04,87.22-13.77,43.12-13.77,89.74,0,132.86,7.51,23.66,19.26,46.26,35.11,66.64v.07Zm605.44-263.83l-266.47,267.46c-4.66,5.79-9.66,11.37-15.02,16.75-3.96,3.98-7.99,7.74-12.23,11.37l-140.85,141.37-133.41-133.9-167.54,168.17-.56.63,301.5,302.63,320.69-321.89c122.01-122.46,159.96-297.4,113.87-452.52v-.07Zm-500.95-22.47c-18.63,8.1-36.08,19.82-51.3,35.1-10.15,10.19-18.7,21.35-25.65,33.14-37.75,64.06-29.2,147.93,25.65,202.99,49.78,49.96,123.19,61.61,184.02,35.1,2.5-1.05,4.94-2.16,7.3-3.35,1.25-.63,2.5-1.26,3.68-1.88,2.36-1.26,4.73-2.58,7.09-3.98,11.82-6.98,22.94-15.63,33.09-25.82,3.06-3.07,5.98-6.21,8.76-9.49,56.1-65.59,53.18-164.61-8.69-226.71-49.77-49.96-123.19-61.62-184.02-35.1h.07Z"/>
    </g>
  </g>
</svg>