<?xml version="1.0" encoding="UTF-8"?>
<svg id="Layer_2" data-name="Layer 2" xmlns="http://www.w3.org/2000/svg" xmlns:xlink="http://www.w3.org/1999/xlink" viewBox="0 0 907.03 731">
  <defs>
    <style>
      .cls-1 {
        fill: none;
      }

      .cls-1, .cls-2, .cls-3 {
        stroke-width: 0px;
      }

      .cls-2 {
        fill: #d9d9d9;
      }

      .cls-4 {
        mask: url(#mask);
      }

      .cls-3 {
        fill: rgba(255, 255, 255, .15);
      }
    </style>
    <mask id="mask" x="-16" y="0" width="923" height="731" maskUnits="userSpaceOnUse">
      <g id="mask0_858_1726" data-name="mask0 858 1726">
        <rect class="cls-2" x="-16" y="0" width="906" height="731"/>
      </g>
    </mask>
  </defs>
  <g id="Layer_1-2" data-name="Layer 1">
    <g class="cls-4">
      <path class="cls-3" d="m805.4,0H101.63C33.88,83.41,0,185.31,0,287.22c0,108.04,38.09,216.09,114.3,302.07l168.3-168.93v-.07c-15.85-20.38-27.6-42.98-35.11-66.64-13.76-43.12-13.76-89.74,0-132.86,10.15-31.89,27.81-61.89,53.05-87.22,25.23-25.33,55.13-43.06,86.9-53.24,42.89-13.75,89.19-13.75,132.08,0,31.84,10.18,61.73,27.98,87.04,53.31,25.3,25.33,42.96,55.4,53.11,87.36,8.07,25.26,11.33,51.71,9.94,77.94l33.86-33.98,163.78-164.4c-15.89-35.48-36.49-69.33-61.85-100.56Zm82.64,156.59v-.07l-266.46,267.47c-4.66,5.79-9.67,11.37-15.02,16.74-3.96,3.98-8,7.75-12.24,11.38l-140.84,141.37-133.41-133.91-167.54,168.17-.55.63,102.25,102.63h398.5l121.44-121.89c122-122.46,159.96-297.4,113.87-452.52Zm-317.01,12.56c-49.77-49.96-123.18-61.61-184.01-35.09h.07c-18.63,8.09-36.08,19.81-51.31,35.09-10.15,10.19-18.7,21.36-25.65,33.15-37.75,64.06-29.2,147.93,25.65,202.99,49.78,49.96,123.19,61.61,184.02,35.1,2.5-1.05,4.94-2.17,7.3-3.35,1.25-.63,2.5-1.26,3.68-1.89,2.37-1.25,4.73-2.58,7.09-3.98,11.82-6.97,22.95-15.63,33.1-25.81,3.05-3.07,5.97-6.21,8.75-9.49,56.11-65.6,53.19-164.61-8.69-226.72Z"/>
    </g>
    <rect class="cls-1" width="907.03" height="731"/>
  </g>
</svg>