<?xml version="1.0" encoding="UTF-8"?>
<svg id="Layer_2" data-name="Layer 2" xmlns="http://www.w3.org/2000/svg" viewBox="0 0 183 58">
  <defs>
    <style>
      .cls-1 {
        fill: #4d4d4d;
      }

      .cls-1, .cls-2 {
        stroke-width: 0px;
      }

      .cls-2 {
        fill: #f18720;
      }
    </style>
  </defs>
  <g id="Layer_1-2" data-name="Layer 1">
    <path class="cls-2" d="m14.8,31.05l-8.82,8.92C-2.23,30.63-1.99,16.36,6.7,7.3c.09-.09.17-.18.26-.27.09-.09.17-.17.26-.26,9.21-9.03,23.87-9.03,33.07,0,.09.08.17.17.26.26.09.09.17.18.26.27,1.98,2.06,3.51,4.39,4.62,6.87l-8.58,8.68-1.77,1.79c.07-1.38-.1-2.78-.52-4.11-.53-1.69-1.46-3.27-2.78-4.61-1.32-1.34-2.89-2.28-4.56-2.81-2.25-.73-4.67-.73-6.92,0-1.66.54-3.23,1.47-4.55,2.81-1.32,1.34-2.25,2.92-2.78,4.6-.72,2.28-.72,4.74,0,7.01.39,1.25,1.01,2.44,1.84,3.52h0Zm31.72-13.92l-13.96,14.12c-.24.31-.51.6-.79.88-.21.21-.42.41-.64.6l-7.38,7.46-6.99-7.07-8.78,8.87-.03.03,15.79,15.97,16.8-16.99c6.39-6.46,8.38-15.7,5.97-23.88h0Zm-26.24-1.19c-.98.43-1.89,1.05-2.69,1.85-.53.54-.98,1.13-1.34,1.75-1.98,3.38-1.53,7.81,1.34,10.71,2.61,2.64,6.45,3.25,9.64,1.85.13-.06.26-.11.38-.18.07-.03.13-.07.19-.1.12-.07.25-.14.37-.21.62-.37,1.2-.82,1.73-1.36.16-.16.31-.33.46-.5,2.94-3.46,2.79-8.69-.46-11.96-2.61-2.64-6.45-3.25-9.64-1.85h0Z"/>
    <path class="cls-1" d="m53.98,24.72c0-5.46,4.09-9.78,9.78-9.78s9.78,4.33,9.78,9.78-4.09,9.78-9.78,9.78-9.78-4.33-9.78-9.78Zm15.26,0c0-3.6-2.47-5.75-5.48-5.75s-5.48,2.15-5.48,5.75,2.47,5.75,5.48,5.75,5.48-2.15,5.48-5.75Z"/>
    <path class="cls-1" d="m76.21,15.31h4.31v6.45c.53-.62,1.06-1.21,1.06-1.21l5-5.24h5.37l-6.78,7.1,6.99,11.72h-4.89l-5.11-8.6-1.65,1.75v6.85h-4.31V15.31Z"/>
    <path class="cls-2" d="m100.59,15.31h4.04l7.58,18.82h-4.68l-1.68-4.54h-6.49l-1.68,4.54h-4.68l7.58-18.82h0Zm3.91,10.57l-1.12-3.06s-.43-1.1-.77-2.23c-.35,1.13-.77,2.23-.77,2.23l-1.12,3.06h3.78Z"/>
    <path class="cls-2" d="m113.59,15.31h4.31v14.79h9.33v4.03h-13.64V15.31Z"/>
    <path class="cls-2" d="m127.54,24.72c0-5.46,4.09-9.78,9.78-9.78s9.78,4.33,9.78,9.78-4.09,9.78-9.78,9.78-9.78-4.33-9.78-9.78Zm15.26,0c0-3.6-2.47-5.75-5.48-5.75s-5.48,2.15-5.48,5.75,2.47,5.75,5.48,5.75,5.48-2.15,5.48-5.75Z"/>
    <path class="cls-2" d="m149.77,15.31h4.31l6.81,10.67s.64,1.08.8,1.48v-12.15h4.2v18.82h-4.31l-6.81-10.75s-.64-1.08-.8-1.48v12.23h-4.2V15.31h0Z"/>
    <path class="cls-2" d="m169.34,15.31h13.58v3.82h-9.28v3.41h8.53v3.71h-8.53v4.06h9.36v3.82h-13.66V15.31Z"/>
    <g>
      <path class="cls-1" d="m54.03,49.37l2.55-6.3h1.13l2.55,6.3h-1.27l-.63-1.65h-2.43l-.63,1.65h-1.27Zm2.88-4.22l-.58,1.51h1.62l-.58-1.51c-.08-.2-.16-.43-.23-.68l-.23.68Z"/>
      <path class="cls-1" d="m63.44,49.37v-6.3h2.86c.73,0,1.3.18,1.72.54s.63.86.63,1.52-.21,1.16-.63,1.52c-.42.36-1,.54-1.72.54h-1.67v2.2h-1.19Zm1.19-5.24v1.98h1.64c.4,0,.7-.09.9-.27s.3-.42.3-.72-.1-.55-.3-.72-.5-.27-.9-.27h-1.64Z"/>
      <path class="cls-1" d="m73.48,47.41h-3.44c.04.34.17.61.39.81s.5.3.84.3c.55,0,.96-.27,1.23-.82l.85.49c-.42.87-1.12,1.31-2.1,1.31-.64,0-1.18-.22-1.62-.66-.45-.44-.67-1.01-.67-1.7s.23-1.26.68-1.7c.45-.44,1.01-.66,1.67-.66s1.16.21,1.57.62c.41.42.61.95.61,1.61v.4Zm-2.21-1.76c-.29,0-.55.09-.77.27s-.37.4-.45.67h2.39c-.05-.29-.18-.52-.39-.69s-.46-.25-.78-.25Z"/>
      <path class="cls-1" d="m78.28,45.41c.48.42.72.99.72,1.73s-.24,1.32-.72,1.73c-.48.42-1.05.63-1.71.63s-1.23-.21-1.71-.63c-.48-.42-.72-.99-.72-1.73s.24-1.32.72-1.73c.48-.42,1.05-.62,1.71-.62s1.23.21,1.71.62Zm-2.62,2.67c.25.24.56.36.9.36s.65-.12.9-.36c.25-.24.38-.55.38-.94s-.13-.7-.38-.94-.56-.36-.9-.36-.65.12-.9.36-.38.55-.38.94.13.7.38.94Z"/>
      <path class="cls-1" d="m79.89,51.21v-6.3h1.13v.64c.16-.23.37-.41.65-.55.28-.14.58-.21.9-.21.58,0,1.07.21,1.46.64.39.43.59,1,.59,1.72s-.21,1.27-.62,1.71c-.41.43-.92.65-1.53.65s-1.09-.23-1.45-.67v2.38h-1.13Zm3.22-4.99c-.24-.25-.54-.37-.9-.37s-.66.12-.9.37c-.24.25-.36.56-.36.92s.12.67.36.92c.24.25.54.37.9.37s.66-.12.9-.37.36-.56.36-.92-.12-.67-.36-.92Z"/>
      <path class="cls-1" d="m85.5,49.37v-6.3h1.13v6.3h-1.13Z"/>
      <path class="cls-1" d="m92.04,47.41h-3.44c.04.34.17.61.39.81s.5.3.84.3c.55,0,.96-.27,1.23-.82l.85.49c-.42.87-1.12,1.31-2.1,1.31-.64,0-1.18-.22-1.62-.66-.45-.44-.67-1.01-.67-1.7s.23-1.26.68-1.7c.45-.44,1.01-.66,1.67-.66s1.16.21,1.57.62c.41.42.61.95.61,1.61v.4Zm-2.21-1.76c-.29,0-.55.09-.77.27s-.37.4-.45.67h2.39c-.05-.29-.18-.52-.39-.69s-.46-.25-.78-.25Z"/>
      <path class="cls-1" d="m93.88,46.01c0,.28.35.49,1.05.63.52.11.9.27,1.14.49.24.22.36.51.36.89,0,.43-.16.79-.48,1.07-.32.28-.75.42-1.29.42s-.94-.13-1.28-.38-.59-.57-.76-.96l.91-.58c.1.29.25.53.45.7.19.17.43.26.71.26.19,0,.35-.04.49-.13.14-.09.21-.21.21-.36,0-.14-.08-.26-.22-.35-.15-.09-.39-.16-.73-.23-1.04-.2-1.56-.67-1.56-1.39,0-.4.16-.72.49-.95.32-.23.72-.35,1.18-.35s.85.09,1.14.27c.29.18.52.46.71.86l-.82.49c-.2-.52-.54-.78-1.01-.78s-.67.13-.67.4Z"/>
      <path class="cls-1" d="m101.51,49.37h-1.15c-.14-.18-.22-.42-.22-.71-.31.56-.81.84-1.49.84-.44,0-.8-.13-1.08-.38s-.42-.59-.42-1.01.15-.76.45-1c.3-.24.68-.4,1.15-.47l1.34-.21v-.17c0-.45-.27-.67-.82-.67-.25,0-.45.05-.59.14-.14.1-.21.22-.21.36,0,.04,0,.07.02.11l-1.02.34c-.05-.12-.08-.25-.08-.38,0-.37.17-.68.51-.96s.8-.41,1.37-.41c.64,0,1.12.13,1.45.4.33.27.5.68.5,1.21v1.86c0,.45.1.82.3,1.11Zm-2.59-.79c.34,0,.62-.11.84-.34.22-.22.32-.54.32-.96v-.08l-1.08.18c-.5.08-.75.3-.75.66,0,.17.06.31.18.4s.28.14.49.14Z"/>
      <path class="cls-1" d="m101.8,45.83v-.92h.65v-.63c0-.53.15-.94.44-1.23.29-.29.67-.43,1.15-.43.2,0,.39.03.57.1l-.2,1c-.11-.04-.21-.05-.32-.05-.34,0-.5.2-.5.58v.66h.97v.92h-.97v3.55h-1.13v-3.55h-.65Z"/>
      <path class="cls-1" d="m109.38,47.41h-3.44c.04.34.17.61.39.81s.5.3.84.3c.55,0,.96-.27,1.23-.82l.85.49c-.42.87-1.12,1.31-2.1,1.31-.64,0-1.18-.22-1.62-.66-.45-.44-.67-1.01-.67-1.7s.23-1.26.68-1.7c.45-.44,1.01-.66,1.67-.66s1.16.21,1.57.62c.41.42.61.95.61,1.61v.4Zm-2.21-1.76c-.29,0-.55.09-.77.27s-.37.4-.45.67h2.39c-.05-.29-.18-.52-.39-.69s-.46-.25-.78-.25Z"/>
      <path class="cls-1" d="m117.75,47.14l.93.67c-.4.61-.8,1.04-1.22,1.3s-.96.39-1.62.39c-.94,0-1.71-.3-2.31-.91-.61-.61-.91-1.4-.91-2.37s.31-1.75.93-2.36,1.4-.91,2.33-.91c.64,0,1.21.15,1.7.45s.85.7,1.06,1.19l-.96.69c-.39-.83-1-1.24-1.84-1.24-.57,0-1.05.2-1.44.6-.39.4-.58.93-.58,1.58s.19,1.16.58,1.57c.39.41.87.61,1.44.61.82,0,1.46-.42,1.91-1.26Z"/>
      <path class="cls-1" d="m123.36,45.41c.48.42.72.99.72,1.73s-.24,1.32-.72,1.73c-.48.42-1.05.63-1.71.63s-1.23-.21-1.71-.63c-.48-.42-.72-.99-.72-1.73s.24-1.32.72-1.73c.48-.42,1.05-.62,1.71-.62s1.23.21,1.71.62Zm-2.62,2.67c.25.24.56.36.9.36s.65-.12.9-.36c.25-.24.38-.55.38-.94s-.13-.7-.38-.94-.56-.36-.9-.36-.65.12-.9.36-.38.55-.38.94.13.7.38.94Z"/>
      <path class="cls-1" d="m131.5,46.25v3.12h-1.13v-2.76c0-.56-.23-.84-.7-.84-.26,0-.47.1-.62.29-.16.19-.24.47-.24.83v2.48h-1.13v-2.75c0-.57-.24-.86-.72-.86-.23,0-.43.1-.6.29s-.25.46-.25.81v2.5h-1.13v-4.46h1.13v.59c.31-.48.74-.72,1.3-.72.62,0,1.04.25,1.24.76.32-.51.79-.76,1.42-.76.46,0,.81.13,1.06.4.25.26.38.62.38,1.07Z"/>
      <path class="cls-1" d="m132.53,51.21v-6.3h1.13v.64c.16-.23.37-.41.65-.55.28-.14.58-.21.9-.21.58,0,1.07.21,1.46.64.39.43.59,1,.59,1.72s-.21,1.27-.62,1.71c-.41.43-.92.65-1.53.65s-1.09-.23-1.45-.67v2.38h-1.13Zm3.22-4.99c-.24-.25-.54-.37-.9-.37s-.66.12-.9.37c-.24.25-.36.56-.36.92s.12.67.36.92c.24.25.54.37.9.37s.66-.12.9-.37.36-.56.36-.92-.12-.67-.36-.92Z"/>
      <path class="cls-1" d="m142.31,49.37h-1.15c-.14-.18-.22-.42-.22-.71-.31.56-.81.84-1.49.84-.44,0-.8-.13-1.08-.38s-.42-.59-.42-1.01.15-.76.45-1c.3-.24.68-.4,1.15-.47l1.34-.21v-.17c0-.45-.27-.67-.82-.67-.25,0-.45.05-.59.14-.14.1-.21.22-.21.36,0,.04,0,.07.02.11l-1.02.34c-.05-.12-.08-.25-.08-.38,0-.37.17-.68.51-.96s.8-.41,1.37-.41c.64,0,1.12.13,1.45.4.33.27.5.68.5,1.21v1.86c0,.45.1.82.3,1.11Zm-2.59-.79c.34,0,.62-.11.84-.34.22-.22.32-.54.32-.96v-.08l-1.08.18c-.5.08-.75.3-.75.66,0,.17.06.31.18.4s.28.14.49.14Z"/>
      <path class="cls-1" d="m147.34,46.33v3.04h-1.13v-2.57c0-.64-.3-.95-.91-.95-.3,0-.55.12-.74.35-.19.23-.29.54-.29.91v2.27h-1.13v-4.46h1.13v.72c.37-.56.87-.85,1.51-.85.47,0,.85.14,1.14.42s.43.66.43,1.12Z"/>
      <path class="cls-1" d="m148.36,51.17l.18-1.05c.13.07.27.11.41.11.23,0,.4-.14.5-.42l.14-.4-1.84-4.5h1.29l1.15,2.9,1.1-2.9h1.29l-2.12,5.27c-.16.38-.35.66-.59.83s-.53.26-.89.26c-.25,0-.45-.03-.62-.1Z"/>
    </g>
  </g>
</svg>